# xmcd CD database file
# Copyright (C) 1995-1998 Ti Kan
#
# Track frame offsets:
#	150
#	13497
#	35129
#	48739
#	64940
#	80515
#	99702
#	113157
#	133998
#	148096
#	186071
#	214389
#	225885
#	250423
#	268315
#	280145
#	294803
#
# Disc length: 4143 seconds
#
# Revision: 1
# Processed by: cddbd v1.4b41PL2 Copyright (c) Steve Scherf et al.
# Submitted via: CDex 1.30
#
DISCID=11102d11
DTITLE=Taj Mahal - The Best of Taj Mahal
DYEAR=2001
DGENRE=Blues
TTITLE0=Statesboro Blues
TTITLE1=Leaving Trunk
TTITLE2=Corinna
TTITLE3=Going Up to the country, Paint My Mailbox Blue
TTITLE4=She Caught the Katy and Left Me A Mule For Ride
TTITLE5=Take A Giant Step
TTITLE6=Six Days on the Road
TTITLE7=Farther On Down The Road
TTITLE8=Fishin' Blues
TTITLE9=Ain't Gwine To Whistle Dixie (Any Mo) (Live)
TTITLE10=You're Going to Need Somebody On Your Bond (Live)
TTITLE11=Cakewalk Into Town
TTITLE12=Oh Susanna
TTITLE13=Frankie And Albert
TTITLE14=Chevrolet
TTITLE15=Johnny Too Bad
TTITLE16=Sweet Mama Janisee (previously unreleased)
EXTD=\nYEAR: 2001  ID3G:   0
EXTT0=
EXTT1=
EXTT2=
EXTT3=
EXTT4=
EXTT5=
EXTT6=
EXTT7=
EXTT8=
EXTT9=
EXTT10=
EXTT11=
EXTT12=
EXTT13=
EXTT14=
EXTT15=
EXTT16=
PLAYORDER=
